<mxfile host="www.draw.io" modified="2020-01-04T16:28:53.360Z" agent="Mozilla/5.0 (Windows NT 10.0; Win64; x64) AppleWebKit/537.36 (KHTML, like Gecko) Chrome/72.0.3626.96 Safari/537.36" etag="Yhlqx9Cx7RAD8zPiKj6D" version="12.4.8" type="github">
  <diagram id="_mbeJhWYO9OrKyF545vx" name="Page-1">
    <mxGraphModel dx="1177" dy="604" grid="1" gridSize="10" guides="1" tooltips="1" connect="1" arrows="1" fold="1" page="1" pageScale="1" pageWidth="827" pageHeight="1169" math="0" shadow="0">
      <root>
        <mxCell id="0"/>
        <mxCell id="1" parent="0"/>
        <mxCell id="wtRjHfEzPxuqXv_TNVYW-70" value="" style="whiteSpace=wrap;html=1;strokeColor=#000000;fillColor=none;" vertex="1" parent="1">
          <mxGeometry x="880" y="40" width="390" height="280" as="geometry"/>
        </mxCell>
        <mxCell id="wtRjHfEzPxuqXv_TNVYW-39" style="edgeStyle=orthogonalEdgeStyle;rounded=0;orthogonalLoop=1;jettySize=auto;html=1;exitX=0.658;exitY=1;exitDx=0;exitDy=0;exitPerimeter=0;entryX=0;entryY=0.5;entryDx=0;entryDy=0;entryPerimeter=0;endArrow=none;endFill=0;" edge="1" parent="1" source="wtRjHfEzPxuqXv_TNVYW-27" target="wtRjHfEzPxuqXv_TNVYW-37">
          <mxGeometry relative="1" as="geometry">
            <Array as="points">
              <mxPoint x="1050" y="120"/>
              <mxPoint x="1050" y="120"/>
            </Array>
          </mxGeometry>
        </mxCell>
        <mxCell id="wtRjHfEzPxuqXv_TNVYW-41" style="edgeStyle=orthogonalEdgeStyle;rounded=0;orthogonalLoop=1;jettySize=auto;html=1;exitX=0.342;exitY=1;exitDx=0;exitDy=0;exitPerimeter=0;entryX=0;entryY=0.84;entryDx=0;entryDy=0;entryPerimeter=0;endArrow=none;endFill=0;" edge="1" parent="1" source="wtRjHfEzPxuqXv_TNVYW-27">
          <mxGeometry relative="1" as="geometry">
            <mxPoint x="1000" y="168" as="targetPoint"/>
            <Array as="points">
              <mxPoint x="920" y="120"/>
              <mxPoint x="920" y="168"/>
            </Array>
          </mxGeometry>
        </mxCell>
        <mxCell id="wtRjHfEzPxuqXv_TNVYW-27" value="" style="verticalLabelPosition=bottom;shadow=0;dashed=0;align=center;html=1;verticalAlign=top;shape=mxgraph.electrical.radio.loop_antenna;strokeColor=#000000;" vertex="1" parent="1">
          <mxGeometry x="1000" y="80" width="40" height="40" as="geometry"/>
        </mxCell>
        <mxCell id="wtRjHfEzPxuqXv_TNVYW-35" value="" style="pointerEvents=1;verticalLabelPosition=bottom;shadow=0;dashed=0;align=center;html=1;verticalAlign=top;shape=mxgraph.electrical.resistors.resistor_1;strokeColor=#000000;" vertex="1" parent="1">
          <mxGeometry x="463" y="420" width="60" height="20" as="geometry"/>
        </mxCell>
        <mxCell id="wtRjHfEzPxuqXv_TNVYW-36" value="+&amp;nbsp; &amp;nbsp;-" style="text;html=1;resizable=0;autosize=1;align=center;verticalAlign=middle;points=[];fillColor=none;strokeColor=none;rounded=0;" vertex="1" parent="1">
          <mxGeometry x="473" y="420" width="40" height="20" as="geometry"/>
        </mxCell>
        <mxCell id="wtRjHfEzPxuqXv_TNVYW-40" style="edgeStyle=orthogonalEdgeStyle;rounded=0;orthogonalLoop=1;jettySize=auto;html=1;exitX=1;exitY=0.5;exitDx=0;exitDy=0;exitPerimeter=0;endArrow=none;endFill=0;entryX=1;entryY=0.84;entryDx=0;entryDy=0;entryPerimeter=0;" edge="1" parent="1" source="wtRjHfEzPxuqXv_TNVYW-37">
          <mxGeometry relative="1" as="geometry">
            <mxPoint x="1200" y="168" as="targetPoint"/>
            <Array as="points">
              <mxPoint x="1240" y="120"/>
              <mxPoint x="1240" y="168"/>
            </Array>
          </mxGeometry>
        </mxCell>
        <mxCell id="wtRjHfEzPxuqXv_TNVYW-37" value="" style="pointerEvents=1;verticalLabelPosition=bottom;shadow=0;dashed=0;align=center;html=1;verticalAlign=top;shape=mxgraph.electrical.resistors.resistor_1;strokeColor=#000000;" vertex="1" parent="1">
          <mxGeometry x="1080" y="110" width="60" height="20" as="geometry"/>
        </mxCell>
        <mxCell id="wtRjHfEzPxuqXv_TNVYW-38" value="+&amp;nbsp; &amp;nbsp;-" style="text;html=1;resizable=0;autosize=1;align=center;verticalAlign=middle;points=[];fillColor=none;strokeColor=none;rounded=0;" vertex="1" parent="1">
          <mxGeometry x="1090" y="110" width="40" height="20" as="geometry"/>
        </mxCell>
        <mxCell id="wtRjHfEzPxuqXv_TNVYW-47" value="" style="group" vertex="1" connectable="0" parent="1">
          <mxGeometry x="897" y="159" width="143" height="98" as="geometry"/>
        </mxCell>
        <mxCell id="wtRjHfEzPxuqXv_TNVYW-48" value="" style="group" vertex="1" connectable="0" parent="wtRjHfEzPxuqXv_TNVYW-47">
          <mxGeometry y="1" width="143" height="98" as="geometry"/>
        </mxCell>
        <mxCell id="wtRjHfEzPxuqXv_TNVYW-49" value="" style="shape=mxgraph.pid.heat_exchangers.heat_exchanger_(coil_tubes);html=1;align=center;verticalLabelPosition=bottom;verticalAlign=top;dashed=0;rotation=90;" vertex="1" parent="wtRjHfEzPxuqXv_TNVYW-48">
          <mxGeometry x="105.5" y="20" width="35" height="35.63" as="geometry"/>
        </mxCell>
        <mxCell id="wtRjHfEzPxuqXv_TNVYW-50" value="" style="pointerEvents=1;verticalLabelPosition=bottom;shadow=0;dashed=0;align=center;html=1;verticalAlign=top;shape=mxgraph.electrical.electro-mechanical.simple_switch;" vertex="1" parent="wtRjHfEzPxuqXv_TNVYW-48">
          <mxGeometry x="103" width="40" height="9" as="geometry"/>
        </mxCell>
        <mxCell id="wtRjHfEzPxuqXv_TNVYW-51" style="edgeStyle=orthogonalEdgeStyle;rounded=0;orthogonalLoop=1;jettySize=auto;html=1;exitX=1;exitY=0.5;exitDx=0;exitDy=0;exitPerimeter=0;entryX=0.93;entryY=1;entryDx=0;entryDy=0;entryPerimeter=0;endArrow=none;endFill=0;" edge="1" parent="wtRjHfEzPxuqXv_TNVYW-48" source="wtRjHfEzPxuqXv_TNVYW-52" target="wtRjHfEzPxuqXv_TNVYW-49">
          <mxGeometry relative="1" as="geometry">
            <Array as="points">
              <mxPoint x="85" y="88"/>
              <mxPoint x="85" y="51"/>
              <mxPoint x="105" y="51"/>
            </Array>
          </mxGeometry>
        </mxCell>
        <mxCell id="wtRjHfEzPxuqXv_TNVYW-52" value="" style="pointerEvents=1;verticalLabelPosition=bottom;shadow=0;dashed=0;align=center;html=1;verticalAlign=top;shape=mxgraph.electrical.resistors.resistor_1;strokeColor=#000000;" vertex="1" parent="wtRjHfEzPxuqXv_TNVYW-48">
          <mxGeometry x="23" y="78" width="60" height="20" as="geometry"/>
        </mxCell>
        <mxCell id="wtRjHfEzPxuqXv_TNVYW-53" value="+&amp;nbsp; &amp;nbsp;-" style="text;html=1;resizable=0;autosize=1;align=center;verticalAlign=middle;points=[];fillColor=none;strokeColor=none;rounded=0;" vertex="1" parent="wtRjHfEzPxuqXv_TNVYW-48">
          <mxGeometry x="33" y="78" width="40" height="20" as="geometry"/>
        </mxCell>
        <mxCell id="wtRjHfEzPxuqXv_TNVYW-54" style="edgeStyle=orthogonalEdgeStyle;rounded=0;orthogonalLoop=1;jettySize=auto;html=1;exitX=1;exitY=0.84;exitDx=0;exitDy=0;exitPerimeter=0;endArrow=none;endFill=0;" edge="1" parent="wtRjHfEzPxuqXv_TNVYW-48" source="wtRjHfEzPxuqXv_TNVYW-55">
          <mxGeometry relative="1" as="geometry">
            <mxPoint x="103" y="28" as="targetPoint"/>
            <Array as="points">
              <mxPoint x="23" y="28"/>
            </Array>
          </mxGeometry>
        </mxCell>
        <mxCell id="wtRjHfEzPxuqXv_TNVYW-55" value="" style="pointerEvents=1;verticalLabelPosition=bottom;shadow=0;dashed=0;align=center;html=1;verticalAlign=top;shape=mxgraph.electrical.electro-mechanical.simple_switch;rotation=-90;" vertex="1" parent="wtRjHfEzPxuqXv_TNVYW-48">
          <mxGeometry y="51" width="40" height="9" as="geometry"/>
        </mxCell>
        <mxCell id="wtRjHfEzPxuqXv_TNVYW-56" style="edgeStyle=orthogonalEdgeStyle;rounded=0;orthogonalLoop=1;jettySize=auto;html=1;exitX=0;exitY=0.5;exitDx=0;exitDy=0;exitPerimeter=0;entryX=0;entryY=0.84;entryDx=0;entryDy=0;entryPerimeter=0;endArrow=none;endFill=0;" edge="1" parent="wtRjHfEzPxuqXv_TNVYW-48" source="wtRjHfEzPxuqXv_TNVYW-52" target="wtRjHfEzPxuqXv_TNVYW-55">
          <mxGeometry relative="1" as="geometry"/>
        </mxCell>
        <mxCell id="wtRjHfEzPxuqXv_TNVYW-57" value="" style="group" vertex="1" connectable="0" parent="1">
          <mxGeometry x="1059" y="160" width="143" height="98" as="geometry"/>
        </mxCell>
        <mxCell id="wtRjHfEzPxuqXv_TNVYW-58" value="" style="group" vertex="1" connectable="0" parent="wtRjHfEzPxuqXv_TNVYW-57">
          <mxGeometry y="1" width="143" height="98" as="geometry"/>
        </mxCell>
        <mxCell id="wtRjHfEzPxuqXv_TNVYW-59" value="" style="shape=mxgraph.pid.heat_exchangers.heat_exchanger_(coil_tubes);html=1;align=center;verticalLabelPosition=bottom;verticalAlign=top;dashed=0;rotation=90;" vertex="1" parent="wtRjHfEzPxuqXv_TNVYW-58">
          <mxGeometry x="105.5" y="20" width="35" height="35.63" as="geometry"/>
        </mxCell>
        <mxCell id="wtRjHfEzPxuqXv_TNVYW-60" value="" style="pointerEvents=1;verticalLabelPosition=bottom;shadow=0;dashed=0;align=center;html=1;verticalAlign=top;shape=mxgraph.electrical.electro-mechanical.simple_switch;" vertex="1" parent="wtRjHfEzPxuqXv_TNVYW-58">
          <mxGeometry x="103" width="40" height="9" as="geometry"/>
        </mxCell>
        <mxCell id="wtRjHfEzPxuqXv_TNVYW-61" style="edgeStyle=orthogonalEdgeStyle;rounded=0;orthogonalLoop=1;jettySize=auto;html=1;exitX=1;exitY=0.5;exitDx=0;exitDy=0;exitPerimeter=0;entryX=0.93;entryY=1;entryDx=0;entryDy=0;entryPerimeter=0;endArrow=none;endFill=0;" edge="1" parent="wtRjHfEzPxuqXv_TNVYW-58" source="wtRjHfEzPxuqXv_TNVYW-62" target="wtRjHfEzPxuqXv_TNVYW-59">
          <mxGeometry relative="1" as="geometry">
            <Array as="points">
              <mxPoint x="85" y="88"/>
              <mxPoint x="85" y="51"/>
              <mxPoint x="105" y="51"/>
            </Array>
          </mxGeometry>
        </mxCell>
        <mxCell id="wtRjHfEzPxuqXv_TNVYW-62" value="" style="pointerEvents=1;verticalLabelPosition=bottom;shadow=0;dashed=0;align=center;html=1;verticalAlign=top;shape=mxgraph.electrical.resistors.resistor_1;strokeColor=#000000;" vertex="1" parent="wtRjHfEzPxuqXv_TNVYW-58">
          <mxGeometry x="23" y="78" width="60" height="20" as="geometry"/>
        </mxCell>
        <mxCell id="wtRjHfEzPxuqXv_TNVYW-63" value="+&amp;nbsp; &amp;nbsp;-" style="text;html=1;resizable=0;autosize=1;align=center;verticalAlign=middle;points=[];fillColor=none;strokeColor=none;rounded=0;" vertex="1" parent="wtRjHfEzPxuqXv_TNVYW-58">
          <mxGeometry x="33" y="78" width="40" height="20" as="geometry"/>
        </mxCell>
        <mxCell id="wtRjHfEzPxuqXv_TNVYW-64" style="edgeStyle=orthogonalEdgeStyle;rounded=0;orthogonalLoop=1;jettySize=auto;html=1;exitX=1;exitY=0.84;exitDx=0;exitDy=0;exitPerimeter=0;endArrow=none;endFill=0;" edge="1" parent="wtRjHfEzPxuqXv_TNVYW-58" source="wtRjHfEzPxuqXv_TNVYW-65">
          <mxGeometry relative="1" as="geometry">
            <mxPoint x="103" y="28" as="targetPoint"/>
            <Array as="points">
              <mxPoint x="23" y="28"/>
            </Array>
          </mxGeometry>
        </mxCell>
        <mxCell id="wtRjHfEzPxuqXv_TNVYW-65" value="" style="pointerEvents=1;verticalLabelPosition=bottom;shadow=0;dashed=0;align=center;html=1;verticalAlign=top;shape=mxgraph.electrical.electro-mechanical.simple_switch;rotation=-90;" vertex="1" parent="wtRjHfEzPxuqXv_TNVYW-58">
          <mxGeometry y="51" width="40" height="9" as="geometry"/>
        </mxCell>
        <mxCell id="wtRjHfEzPxuqXv_TNVYW-66" style="edgeStyle=orthogonalEdgeStyle;rounded=0;orthogonalLoop=1;jettySize=auto;html=1;exitX=0;exitY=0.5;exitDx=0;exitDy=0;exitPerimeter=0;entryX=0;entryY=0.84;entryDx=0;entryDy=0;entryPerimeter=0;endArrow=none;endFill=0;" edge="1" parent="wtRjHfEzPxuqXv_TNVYW-58" source="wtRjHfEzPxuqXv_TNVYW-62" target="wtRjHfEzPxuqXv_TNVYW-65">
          <mxGeometry relative="1" as="geometry"/>
        </mxCell>
        <mxCell id="wtRjHfEzPxuqXv_TNVYW-67" style="edgeStyle=orthogonalEdgeStyle;rounded=0;orthogonalLoop=1;jettySize=auto;html=1;exitX=1;exitY=0.84;exitDx=0;exitDy=0;exitPerimeter=0;entryX=0;entryY=0.84;entryDx=0;entryDy=0;entryPerimeter=0;endArrow=none;endFill=0;" edge="1" parent="1" source="wtRjHfEzPxuqXv_TNVYW-50" target="wtRjHfEzPxuqXv_TNVYW-60">
          <mxGeometry relative="1" as="geometry">
            <Array as="points">
              <mxPoint x="1101" y="168"/>
            </Array>
          </mxGeometry>
        </mxCell>
        <mxCell id="wtRjHfEzPxuqXv_TNVYW-68" value="" style="verticalLabelPosition=bottom;shadow=0;dashed=0;align=center;html=1;verticalAlign=top;shape=mxgraph.electrical.radio.loop_antenna;strokeColor=#000000;" vertex="1" parent="1">
          <mxGeometry x="463" y="460" width="40" height="40" as="geometry"/>
        </mxCell>
        <mxCell id="wtRjHfEzPxuqXv_TNVYW-71" value="&lt;b&gt;&lt;font style=&quot;font-size: 16px&quot;&gt;与门&lt;/font&gt;&lt;/b&gt;" style="text;html=1;resizable=0;autosize=1;align=center;verticalAlign=middle;points=[];fillColor=none;strokeColor=none;rounded=0;" vertex="1" parent="1">
          <mxGeometry x="880" y="40" width="50" height="20" as="geometry"/>
        </mxCell>
        <mxCell id="wtRjHfEzPxuqXv_TNVYW-72" value="" style="whiteSpace=wrap;html=1;strokeColor=#000000;fillColor=none;" vertex="1" parent="1">
          <mxGeometry x="880" y="360" width="390" height="400" as="geometry"/>
        </mxCell>
        <mxCell id="wtRjHfEzPxuqXv_TNVYW-73" style="edgeStyle=orthogonalEdgeStyle;rounded=0;orthogonalLoop=1;jettySize=auto;html=1;exitX=0.658;exitY=1;exitDx=0;exitDy=0;exitPerimeter=0;entryX=0;entryY=0.5;entryDx=0;entryDy=0;entryPerimeter=0;endArrow=none;endFill=0;" edge="1" parent="1" source="wtRjHfEzPxuqXv_TNVYW-75" target="wtRjHfEzPxuqXv_TNVYW-77">
          <mxGeometry relative="1" as="geometry">
            <Array as="points">
              <mxPoint x="1050" y="440"/>
              <mxPoint x="1050" y="440"/>
            </Array>
          </mxGeometry>
        </mxCell>
        <mxCell id="wtRjHfEzPxuqXv_TNVYW-105" style="edgeStyle=orthogonalEdgeStyle;rounded=0;orthogonalLoop=1;jettySize=auto;html=1;exitX=0.342;exitY=1;exitDx=0;exitDy=0;exitPerimeter=0;endArrow=none;endFill=0;" edge="1" parent="1" source="wtRjHfEzPxuqXv_TNVYW-75">
          <mxGeometry relative="1" as="geometry">
            <mxPoint x="980" y="570" as="targetPoint"/>
            <Array as="points">
              <mxPoint x="960" y="440"/>
              <mxPoint x="960" y="570"/>
            </Array>
          </mxGeometry>
        </mxCell>
        <mxCell id="wtRjHfEzPxuqXv_TNVYW-75" value="" style="verticalLabelPosition=bottom;shadow=0;dashed=0;align=center;html=1;verticalAlign=top;shape=mxgraph.electrical.radio.loop_antenna;strokeColor=#000000;" vertex="1" parent="1">
          <mxGeometry x="1002.5" y="400" width="40" height="40" as="geometry"/>
        </mxCell>
        <mxCell id="wtRjHfEzPxuqXv_TNVYW-102" style="edgeStyle=orthogonalEdgeStyle;rounded=0;orthogonalLoop=1;jettySize=auto;html=1;exitX=1;exitY=0.5;exitDx=0;exitDy=0;exitPerimeter=0;endArrow=none;endFill=0;" edge="1" parent="1" source="wtRjHfEzPxuqXv_TNVYW-77">
          <mxGeometry relative="1" as="geometry">
            <mxPoint x="1180" y="570" as="targetPoint"/>
            <Array as="points">
              <mxPoint x="1200" y="440"/>
              <mxPoint x="1200" y="570"/>
            </Array>
          </mxGeometry>
        </mxCell>
        <mxCell id="wtRjHfEzPxuqXv_TNVYW-77" value="" style="pointerEvents=1;verticalLabelPosition=bottom;shadow=0;dashed=0;align=center;html=1;verticalAlign=top;shape=mxgraph.electrical.resistors.resistor_1;strokeColor=#000000;" vertex="1" parent="1">
          <mxGeometry x="1080" y="430" width="60" height="20" as="geometry"/>
        </mxCell>
        <mxCell id="wtRjHfEzPxuqXv_TNVYW-78" value="+&amp;nbsp; &amp;nbsp;-" style="text;html=1;resizable=0;autosize=1;align=center;verticalAlign=middle;points=[];fillColor=none;strokeColor=none;rounded=0;" vertex="1" parent="1">
          <mxGeometry x="1090" y="430" width="40" height="20" as="geometry"/>
        </mxCell>
        <mxCell id="wtRjHfEzPxuqXv_TNVYW-79" value="" style="group" vertex="1" connectable="0" parent="1">
          <mxGeometry x="1000" y="500" width="143" height="98" as="geometry"/>
        </mxCell>
        <mxCell id="wtRjHfEzPxuqXv_TNVYW-80" value="" style="group" vertex="1" connectable="0" parent="wtRjHfEzPxuqXv_TNVYW-79">
          <mxGeometry y="1" width="143" height="98" as="geometry"/>
        </mxCell>
        <mxCell id="wtRjHfEzPxuqXv_TNVYW-81" value="" style="shape=mxgraph.pid.heat_exchangers.heat_exchanger_(coil_tubes);html=1;align=center;verticalLabelPosition=bottom;verticalAlign=top;dashed=0;rotation=90;" vertex="1" parent="wtRjHfEzPxuqXv_TNVYW-80">
          <mxGeometry x="105.5" y="20" width="35" height="35.63" as="geometry"/>
        </mxCell>
        <mxCell id="wtRjHfEzPxuqXv_TNVYW-82" value="" style="pointerEvents=1;verticalLabelPosition=bottom;shadow=0;dashed=0;align=center;html=1;verticalAlign=top;shape=mxgraph.electrical.electro-mechanical.simple_switch;" vertex="1" parent="wtRjHfEzPxuqXv_TNVYW-80">
          <mxGeometry x="103" width="40" height="9" as="geometry"/>
        </mxCell>
        <mxCell id="wtRjHfEzPxuqXv_TNVYW-83" style="edgeStyle=orthogonalEdgeStyle;rounded=0;orthogonalLoop=1;jettySize=auto;html=1;exitX=1;exitY=0.5;exitDx=0;exitDy=0;exitPerimeter=0;entryX=0.93;entryY=1;entryDx=0;entryDy=0;entryPerimeter=0;endArrow=none;endFill=0;" edge="1" parent="wtRjHfEzPxuqXv_TNVYW-80" source="wtRjHfEzPxuqXv_TNVYW-84" target="wtRjHfEzPxuqXv_TNVYW-81">
          <mxGeometry relative="1" as="geometry">
            <Array as="points">
              <mxPoint x="85" y="88"/>
              <mxPoint x="85" y="51"/>
              <mxPoint x="105" y="51"/>
            </Array>
          </mxGeometry>
        </mxCell>
        <mxCell id="wtRjHfEzPxuqXv_TNVYW-84" value="" style="pointerEvents=1;verticalLabelPosition=bottom;shadow=0;dashed=0;align=center;html=1;verticalAlign=top;shape=mxgraph.electrical.resistors.resistor_1;strokeColor=#000000;" vertex="1" parent="wtRjHfEzPxuqXv_TNVYW-80">
          <mxGeometry x="23" y="78" width="60" height="20" as="geometry"/>
        </mxCell>
        <mxCell id="wtRjHfEzPxuqXv_TNVYW-85" value="+&amp;nbsp; &amp;nbsp;-" style="text;html=1;resizable=0;autosize=1;align=center;verticalAlign=middle;points=[];fillColor=none;strokeColor=none;rounded=0;" vertex="1" parent="wtRjHfEzPxuqXv_TNVYW-80">
          <mxGeometry x="33" y="78" width="40" height="20" as="geometry"/>
        </mxCell>
        <mxCell id="wtRjHfEzPxuqXv_TNVYW-86" style="edgeStyle=orthogonalEdgeStyle;rounded=0;orthogonalLoop=1;jettySize=auto;html=1;exitX=1;exitY=0.84;exitDx=0;exitDy=0;exitPerimeter=0;endArrow=none;endFill=0;" edge="1" parent="wtRjHfEzPxuqXv_TNVYW-80" source="wtRjHfEzPxuqXv_TNVYW-87">
          <mxGeometry relative="1" as="geometry">
            <mxPoint x="103" y="28" as="targetPoint"/>
            <Array as="points">
              <mxPoint x="23" y="28"/>
            </Array>
          </mxGeometry>
        </mxCell>
        <mxCell id="wtRjHfEzPxuqXv_TNVYW-87" value="" style="pointerEvents=1;verticalLabelPosition=bottom;shadow=0;dashed=0;align=center;html=1;verticalAlign=top;shape=mxgraph.electrical.electro-mechanical.simple_switch;rotation=-90;" vertex="1" parent="wtRjHfEzPxuqXv_TNVYW-80">
          <mxGeometry y="51" width="40" height="9" as="geometry"/>
        </mxCell>
        <mxCell id="wtRjHfEzPxuqXv_TNVYW-88" style="edgeStyle=orthogonalEdgeStyle;rounded=0;orthogonalLoop=1;jettySize=auto;html=1;exitX=0;exitY=0.5;exitDx=0;exitDy=0;exitPerimeter=0;entryX=0;entryY=0.84;entryDx=0;entryDy=0;entryPerimeter=0;endArrow=none;endFill=0;" edge="1" parent="wtRjHfEzPxuqXv_TNVYW-80" source="wtRjHfEzPxuqXv_TNVYW-84" target="wtRjHfEzPxuqXv_TNVYW-87">
          <mxGeometry relative="1" as="geometry"/>
        </mxCell>
        <mxCell id="wtRjHfEzPxuqXv_TNVYW-89" value="" style="group" vertex="1" connectable="0" parent="1">
          <mxGeometry x="1002.5" y="620" width="143" height="98" as="geometry"/>
        </mxCell>
        <mxCell id="wtRjHfEzPxuqXv_TNVYW-90" value="" style="group" vertex="1" connectable="0" parent="wtRjHfEzPxuqXv_TNVYW-89">
          <mxGeometry y="1" width="143" height="98" as="geometry"/>
        </mxCell>
        <mxCell id="wtRjHfEzPxuqXv_TNVYW-91" value="" style="shape=mxgraph.pid.heat_exchangers.heat_exchanger_(coil_tubes);html=1;align=center;verticalLabelPosition=bottom;verticalAlign=top;dashed=0;rotation=90;" vertex="1" parent="wtRjHfEzPxuqXv_TNVYW-90">
          <mxGeometry x="105.5" y="20" width="35" height="35.63" as="geometry"/>
        </mxCell>
        <mxCell id="wtRjHfEzPxuqXv_TNVYW-92" value="" style="pointerEvents=1;verticalLabelPosition=bottom;shadow=0;dashed=0;align=center;html=1;verticalAlign=top;shape=mxgraph.electrical.electro-mechanical.simple_switch;" vertex="1" parent="wtRjHfEzPxuqXv_TNVYW-90">
          <mxGeometry x="103" width="40" height="9" as="geometry"/>
        </mxCell>
        <mxCell id="wtRjHfEzPxuqXv_TNVYW-93" style="edgeStyle=orthogonalEdgeStyle;rounded=0;orthogonalLoop=1;jettySize=auto;html=1;exitX=1;exitY=0.5;exitDx=0;exitDy=0;exitPerimeter=0;entryX=0.93;entryY=1;entryDx=0;entryDy=0;entryPerimeter=0;endArrow=none;endFill=0;" edge="1" parent="wtRjHfEzPxuqXv_TNVYW-90" source="wtRjHfEzPxuqXv_TNVYW-94" target="wtRjHfEzPxuqXv_TNVYW-91">
          <mxGeometry relative="1" as="geometry">
            <Array as="points">
              <mxPoint x="85" y="88"/>
              <mxPoint x="85" y="51"/>
              <mxPoint x="105" y="51"/>
            </Array>
          </mxGeometry>
        </mxCell>
        <mxCell id="wtRjHfEzPxuqXv_TNVYW-94" value="" style="pointerEvents=1;verticalLabelPosition=bottom;shadow=0;dashed=0;align=center;html=1;verticalAlign=top;shape=mxgraph.electrical.resistors.resistor_1;strokeColor=#000000;" vertex="1" parent="wtRjHfEzPxuqXv_TNVYW-90">
          <mxGeometry x="23" y="78" width="60" height="20" as="geometry"/>
        </mxCell>
        <mxCell id="wtRjHfEzPxuqXv_TNVYW-95" value="+&amp;nbsp; &amp;nbsp;-" style="text;html=1;resizable=0;autosize=1;align=center;verticalAlign=middle;points=[];fillColor=none;strokeColor=none;rounded=0;" vertex="1" parent="wtRjHfEzPxuqXv_TNVYW-90">
          <mxGeometry x="33" y="78" width="40" height="20" as="geometry"/>
        </mxCell>
        <mxCell id="wtRjHfEzPxuqXv_TNVYW-96" style="edgeStyle=orthogonalEdgeStyle;rounded=0;orthogonalLoop=1;jettySize=auto;html=1;exitX=1;exitY=0.84;exitDx=0;exitDy=0;exitPerimeter=0;endArrow=none;endFill=0;" edge="1" parent="wtRjHfEzPxuqXv_TNVYW-90" source="wtRjHfEzPxuqXv_TNVYW-97">
          <mxGeometry relative="1" as="geometry">
            <mxPoint x="103" y="28" as="targetPoint"/>
            <Array as="points">
              <mxPoint x="23" y="28"/>
            </Array>
          </mxGeometry>
        </mxCell>
        <mxCell id="wtRjHfEzPxuqXv_TNVYW-97" value="" style="pointerEvents=1;verticalLabelPosition=bottom;shadow=0;dashed=0;align=center;html=1;verticalAlign=top;shape=mxgraph.electrical.electro-mechanical.simple_switch;rotation=-90;" vertex="1" parent="wtRjHfEzPxuqXv_TNVYW-90">
          <mxGeometry y="51" width="40" height="9" as="geometry"/>
        </mxCell>
        <mxCell id="wtRjHfEzPxuqXv_TNVYW-98" style="edgeStyle=orthogonalEdgeStyle;rounded=0;orthogonalLoop=1;jettySize=auto;html=1;exitX=0;exitY=0.5;exitDx=0;exitDy=0;exitPerimeter=0;entryX=0;entryY=0.84;entryDx=0;entryDy=0;entryPerimeter=0;endArrow=none;endFill=0;" edge="1" parent="wtRjHfEzPxuqXv_TNVYW-90" source="wtRjHfEzPxuqXv_TNVYW-94" target="wtRjHfEzPxuqXv_TNVYW-97">
          <mxGeometry relative="1" as="geometry"/>
        </mxCell>
        <mxCell id="wtRjHfEzPxuqXv_TNVYW-100" value="&lt;span style=&quot;font-size: 16px&quot;&gt;&lt;b&gt;或门&lt;/b&gt;&lt;/span&gt;" style="text;html=1;resizable=0;autosize=1;align=center;verticalAlign=middle;points=[];fillColor=none;strokeColor=none;rounded=0;" vertex="1" parent="1">
          <mxGeometry x="880" y="360" width="50" height="20" as="geometry"/>
        </mxCell>
        <mxCell id="wtRjHfEzPxuqXv_TNVYW-103" style="edgeStyle=orthogonalEdgeStyle;rounded=0;orthogonalLoop=1;jettySize=auto;html=1;exitX=1;exitY=0.84;exitDx=0;exitDy=0;exitPerimeter=0;entryX=1;entryY=0.84;entryDx=0;entryDy=0;entryPerimeter=0;endArrow=none;endFill=0;" edge="1" parent="1" source="wtRjHfEzPxuqXv_TNVYW-82" target="wtRjHfEzPxuqXv_TNVYW-92">
          <mxGeometry relative="1" as="geometry">
            <Array as="points">
              <mxPoint x="1180" y="509"/>
              <mxPoint x="1180" y="629"/>
            </Array>
          </mxGeometry>
        </mxCell>
        <mxCell id="wtRjHfEzPxuqXv_TNVYW-104" style="edgeStyle=orthogonalEdgeStyle;rounded=0;orthogonalLoop=1;jettySize=auto;html=1;exitX=0;exitY=0.84;exitDx=0;exitDy=0;exitPerimeter=0;entryX=0;entryY=0.84;entryDx=0;entryDy=0;entryPerimeter=0;endArrow=none;endFill=0;" edge="1" parent="1" source="wtRjHfEzPxuqXv_TNVYW-82" target="wtRjHfEzPxuqXv_TNVYW-92">
          <mxGeometry relative="1" as="geometry">
            <Array as="points">
              <mxPoint x="980" y="509"/>
              <mxPoint x="980" y="629"/>
            </Array>
          </mxGeometry>
        </mxCell>
        <mxCell id="wtRjHfEzPxuqXv_TNVYW-109" value="" style="group" vertex="1" connectable="0" parent="1">
          <mxGeometry x="380" y="641" width="143" height="98" as="geometry"/>
        </mxCell>
        <mxCell id="wtRjHfEzPxuqXv_TNVYW-110" value="" style="group" vertex="1" connectable="0" parent="wtRjHfEzPxuqXv_TNVYW-109">
          <mxGeometry y="1" width="143" height="98" as="geometry"/>
        </mxCell>
        <mxCell id="wtRjHfEzPxuqXv_TNVYW-111" value="" style="shape=mxgraph.pid.heat_exchangers.heat_exchanger_(coil_tubes);html=1;align=center;verticalLabelPosition=bottom;verticalAlign=top;dashed=0;rotation=90;" vertex="1" parent="wtRjHfEzPxuqXv_TNVYW-110">
          <mxGeometry x="105.5" y="20" width="35" height="35.63" as="geometry"/>
        </mxCell>
        <mxCell id="wtRjHfEzPxuqXv_TNVYW-112" value="" style="pointerEvents=1;verticalLabelPosition=bottom;shadow=0;dashed=0;align=center;html=1;verticalAlign=top;shape=mxgraph.electrical.electro-mechanical.simple_switch;" vertex="1" parent="wtRjHfEzPxuqXv_TNVYW-110">
          <mxGeometry x="103" width="40" height="9" as="geometry"/>
        </mxCell>
        <mxCell id="wtRjHfEzPxuqXv_TNVYW-113" style="edgeStyle=orthogonalEdgeStyle;rounded=0;orthogonalLoop=1;jettySize=auto;html=1;exitX=1;exitY=0.5;exitDx=0;exitDy=0;exitPerimeter=0;entryX=0.93;entryY=1;entryDx=0;entryDy=0;entryPerimeter=0;endArrow=none;endFill=0;" edge="1" parent="wtRjHfEzPxuqXv_TNVYW-110" source="wtRjHfEzPxuqXv_TNVYW-114" target="wtRjHfEzPxuqXv_TNVYW-111">
          <mxGeometry relative="1" as="geometry">
            <Array as="points">
              <mxPoint x="85" y="88"/>
              <mxPoint x="85" y="51"/>
              <mxPoint x="105" y="51"/>
            </Array>
          </mxGeometry>
        </mxCell>
        <mxCell id="wtRjHfEzPxuqXv_TNVYW-114" value="" style="pointerEvents=1;verticalLabelPosition=bottom;shadow=0;dashed=0;align=center;html=1;verticalAlign=top;shape=mxgraph.electrical.resistors.resistor_1;strokeColor=#000000;" vertex="1" parent="wtRjHfEzPxuqXv_TNVYW-110">
          <mxGeometry x="23" y="78" width="60" height="20" as="geometry"/>
        </mxCell>
        <mxCell id="wtRjHfEzPxuqXv_TNVYW-115" value="+&amp;nbsp; &amp;nbsp;-" style="text;html=1;resizable=0;autosize=1;align=center;verticalAlign=middle;points=[];fillColor=none;strokeColor=none;rounded=0;" vertex="1" parent="wtRjHfEzPxuqXv_TNVYW-110">
          <mxGeometry x="33" y="78" width="40" height="20" as="geometry"/>
        </mxCell>
        <mxCell id="wtRjHfEzPxuqXv_TNVYW-116" style="edgeStyle=orthogonalEdgeStyle;rounded=0;orthogonalLoop=1;jettySize=auto;html=1;exitX=1;exitY=0.84;exitDx=0;exitDy=0;exitPerimeter=0;endArrow=none;endFill=0;" edge="1" parent="wtRjHfEzPxuqXv_TNVYW-110" source="wtRjHfEzPxuqXv_TNVYW-117">
          <mxGeometry relative="1" as="geometry">
            <mxPoint x="103" y="28" as="targetPoint"/>
            <Array as="points">
              <mxPoint x="23" y="28"/>
            </Array>
          </mxGeometry>
        </mxCell>
        <mxCell id="wtRjHfEzPxuqXv_TNVYW-117" value="" style="pointerEvents=1;verticalLabelPosition=bottom;shadow=0;dashed=0;align=center;html=1;verticalAlign=top;shape=mxgraph.electrical.electro-mechanical.simple_switch;rotation=-90;" vertex="1" parent="wtRjHfEzPxuqXv_TNVYW-110">
          <mxGeometry y="51" width="40" height="9" as="geometry"/>
        </mxCell>
        <mxCell id="wtRjHfEzPxuqXv_TNVYW-118" style="edgeStyle=orthogonalEdgeStyle;rounded=0;orthogonalLoop=1;jettySize=auto;html=1;exitX=0;exitY=0.5;exitDx=0;exitDy=0;exitPerimeter=0;entryX=0;entryY=0.84;entryDx=0;entryDy=0;entryPerimeter=0;endArrow=none;endFill=0;" edge="1" parent="wtRjHfEzPxuqXv_TNVYW-110" source="wtRjHfEzPxuqXv_TNVYW-114" target="wtRjHfEzPxuqXv_TNVYW-117">
          <mxGeometry relative="1" as="geometry"/>
        </mxCell>
        <mxCell id="wtRjHfEzPxuqXv_TNVYW-130" value="" style="whiteSpace=wrap;html=1;strokeColor=#000000;fillColor=none;" vertex="1" parent="1">
          <mxGeometry x="880" y="801" width="390" height="279" as="geometry"/>
        </mxCell>
        <mxCell id="wtRjHfEzPxuqXv_TNVYW-131" style="edgeStyle=orthogonalEdgeStyle;rounded=0;orthogonalLoop=1;jettySize=auto;html=1;exitX=0.658;exitY=1;exitDx=0;exitDy=0;exitPerimeter=0;entryX=0;entryY=0.5;entryDx=0;entryDy=0;entryPerimeter=0;endArrow=none;endFill=0;" edge="1" parent="1" source="wtRjHfEzPxuqXv_TNVYW-133" target="wtRjHfEzPxuqXv_TNVYW-135">
          <mxGeometry relative="1" as="geometry">
            <Array as="points">
              <mxPoint x="1050" y="881"/>
              <mxPoint x="1050" y="881"/>
            </Array>
          </mxGeometry>
        </mxCell>
        <mxCell id="wtRjHfEzPxuqXv_TNVYW-132" style="edgeStyle=orthogonalEdgeStyle;rounded=0;orthogonalLoop=1;jettySize=auto;html=1;exitX=0.342;exitY=1;exitDx=0;exitDy=0;exitPerimeter=0;endArrow=none;endFill=0;entryX=0;entryY=0.43;entryDx=0;entryDy=0;entryPerimeter=0;" edge="1" parent="1" source="wtRjHfEzPxuqXv_TNVYW-133" target="wtRjHfEzPxuqXv_TNVYW-163">
          <mxGeometry relative="1" as="geometry">
            <mxPoint x="979.666666666667" y="1011.1666666666667" as="targetPoint"/>
            <Array as="points">
              <mxPoint x="960" y="881"/>
              <mxPoint x="960" y="943"/>
            </Array>
          </mxGeometry>
        </mxCell>
        <mxCell id="wtRjHfEzPxuqXv_TNVYW-133" value="" style="verticalLabelPosition=bottom;shadow=0;dashed=0;align=center;html=1;verticalAlign=top;shape=mxgraph.electrical.radio.loop_antenna;strokeColor=#000000;" vertex="1" parent="1">
          <mxGeometry x="1002.5" y="841" width="40" height="40" as="geometry"/>
        </mxCell>
        <mxCell id="wtRjHfEzPxuqXv_TNVYW-134" style="edgeStyle=orthogonalEdgeStyle;rounded=0;orthogonalLoop=1;jettySize=auto;html=1;exitX=1;exitY=0.5;exitDx=0;exitDy=0;exitPerimeter=0;endArrow=none;endFill=0;entryX=1;entryY=0.43;entryDx=0;entryDy=0;entryPerimeter=0;" edge="1" parent="1" source="wtRjHfEzPxuqXv_TNVYW-135" target="wtRjHfEzPxuqXv_TNVYW-163">
          <mxGeometry relative="1" as="geometry">
            <mxPoint x="1179.666666666667" y="1011.1666666666667" as="targetPoint"/>
            <Array as="points">
              <mxPoint x="1200" y="881"/>
              <mxPoint x="1200" y="943"/>
            </Array>
          </mxGeometry>
        </mxCell>
        <mxCell id="wtRjHfEzPxuqXv_TNVYW-135" value="" style="pointerEvents=1;verticalLabelPosition=bottom;shadow=0;dashed=0;align=center;html=1;verticalAlign=top;shape=mxgraph.electrical.resistors.resistor_1;strokeColor=#000000;" vertex="1" parent="1">
          <mxGeometry x="1080" y="871" width="60" height="20" as="geometry"/>
        </mxCell>
        <mxCell id="wtRjHfEzPxuqXv_TNVYW-136" value="+&amp;nbsp; &amp;nbsp;-" style="text;html=1;resizable=0;autosize=1;align=center;verticalAlign=middle;points=[];fillColor=none;strokeColor=none;rounded=0;" vertex="1" parent="1">
          <mxGeometry x="1090" y="871" width="40" height="20" as="geometry"/>
        </mxCell>
        <mxCell id="wtRjHfEzPxuqXv_TNVYW-157" value="&lt;span style=&quot;font-size: 16px&quot;&gt;&lt;b&gt;非门&lt;/b&gt;&lt;/span&gt;" style="text;html=1;resizable=0;autosize=1;align=center;verticalAlign=middle;points=[];fillColor=none;strokeColor=none;rounded=0;" vertex="1" parent="1">
          <mxGeometry x="880" y="801" width="50" height="20" as="geometry"/>
        </mxCell>
        <mxCell id="wtRjHfEzPxuqXv_TNVYW-160" value="" style="group" vertex="1" connectable="0" parent="1">
          <mxGeometry x="380" y="801" width="143" height="98" as="geometry"/>
        </mxCell>
        <mxCell id="wtRjHfEzPxuqXv_TNVYW-129" value="" style="group" vertex="1" connectable="0" parent="wtRjHfEzPxuqXv_TNVYW-160">
          <mxGeometry width="143" height="98" as="geometry"/>
        </mxCell>
        <mxCell id="wtRjHfEzPxuqXv_TNVYW-106" value="" style="pointerEvents=1;verticalLabelPosition=bottom;shadow=0;dashed=0;align=center;html=1;verticalAlign=top;shape=mxgraph.electrical.electro-mechanical.stay_put;strokeColor=#000000;fillColor=none;" vertex="1" parent="wtRjHfEzPxuqXv_TNVYW-129">
          <mxGeometry x="103" width="40" height="7" as="geometry"/>
        </mxCell>
        <mxCell id="wtRjHfEzPxuqXv_TNVYW-120" value="" style="group" vertex="1" connectable="0" parent="wtRjHfEzPxuqXv_TNVYW-129">
          <mxGeometry width="143" height="98" as="geometry"/>
        </mxCell>
        <mxCell id="wtRjHfEzPxuqXv_TNVYW-121" value="" style="shape=mxgraph.pid.heat_exchangers.heat_exchanger_(coil_tubes);html=1;align=center;verticalLabelPosition=bottom;verticalAlign=top;dashed=0;rotation=90;" vertex="1" parent="wtRjHfEzPxuqXv_TNVYW-120">
          <mxGeometry x="105.5" y="20" width="35" height="35.63" as="geometry"/>
        </mxCell>
        <mxCell id="wtRjHfEzPxuqXv_TNVYW-123" style="edgeStyle=orthogonalEdgeStyle;rounded=0;orthogonalLoop=1;jettySize=auto;html=1;exitX=1;exitY=0.5;exitDx=0;exitDy=0;exitPerimeter=0;entryX=0.93;entryY=1;entryDx=0;entryDy=0;entryPerimeter=0;endArrow=none;endFill=0;" edge="1" parent="wtRjHfEzPxuqXv_TNVYW-120" source="wtRjHfEzPxuqXv_TNVYW-124" target="wtRjHfEzPxuqXv_TNVYW-121">
          <mxGeometry relative="1" as="geometry">
            <Array as="points">
              <mxPoint x="85" y="88"/>
              <mxPoint x="85" y="51"/>
              <mxPoint x="105" y="51"/>
            </Array>
          </mxGeometry>
        </mxCell>
        <mxCell id="wtRjHfEzPxuqXv_TNVYW-124" value="" style="pointerEvents=1;verticalLabelPosition=bottom;shadow=0;dashed=0;align=center;html=1;verticalAlign=top;shape=mxgraph.electrical.resistors.resistor_1;strokeColor=#000000;" vertex="1" parent="wtRjHfEzPxuqXv_TNVYW-120">
          <mxGeometry x="23" y="78" width="60" height="20" as="geometry"/>
        </mxCell>
        <mxCell id="wtRjHfEzPxuqXv_TNVYW-125" value="+&amp;nbsp; &amp;nbsp;-" style="text;html=1;resizable=0;autosize=1;align=center;verticalAlign=middle;points=[];fillColor=none;strokeColor=none;rounded=0;" vertex="1" parent="wtRjHfEzPxuqXv_TNVYW-120">
          <mxGeometry x="33" y="78" width="40" height="20" as="geometry"/>
        </mxCell>
        <mxCell id="wtRjHfEzPxuqXv_TNVYW-126" style="edgeStyle=orthogonalEdgeStyle;rounded=0;orthogonalLoop=1;jettySize=auto;html=1;exitX=1;exitY=0.84;exitDx=0;exitDy=0;exitPerimeter=0;endArrow=none;endFill=0;" edge="1" parent="wtRjHfEzPxuqXv_TNVYW-120" source="wtRjHfEzPxuqXv_TNVYW-127">
          <mxGeometry relative="1" as="geometry">
            <mxPoint x="103" y="28" as="targetPoint"/>
            <Array as="points">
              <mxPoint x="23" y="28"/>
            </Array>
          </mxGeometry>
        </mxCell>
        <mxCell id="wtRjHfEzPxuqXv_TNVYW-127" value="" style="pointerEvents=1;verticalLabelPosition=bottom;shadow=0;dashed=0;align=center;html=1;verticalAlign=top;shape=mxgraph.electrical.electro-mechanical.simple_switch;rotation=-90;" vertex="1" parent="wtRjHfEzPxuqXv_TNVYW-120">
          <mxGeometry y="51" width="40" height="9" as="geometry"/>
        </mxCell>
        <mxCell id="wtRjHfEzPxuqXv_TNVYW-128" style="edgeStyle=orthogonalEdgeStyle;rounded=0;orthogonalLoop=1;jettySize=auto;html=1;exitX=0;exitY=0.5;exitDx=0;exitDy=0;exitPerimeter=0;entryX=0;entryY=0.84;entryDx=0;entryDy=0;entryPerimeter=0;endArrow=none;endFill=0;" edge="1" parent="wtRjHfEzPxuqXv_TNVYW-120" source="wtRjHfEzPxuqXv_TNVYW-124" target="wtRjHfEzPxuqXv_TNVYW-127">
          <mxGeometry relative="1" as="geometry"/>
        </mxCell>
        <mxCell id="wtRjHfEzPxuqXv_TNVYW-161" value="" style="group" vertex="1" connectable="0" parent="1">
          <mxGeometry x="1007.5" y="940" width="143" height="98" as="geometry"/>
        </mxCell>
        <mxCell id="wtRjHfEzPxuqXv_TNVYW-162" value="" style="group" vertex="1" connectable="0" parent="wtRjHfEzPxuqXv_TNVYW-161">
          <mxGeometry width="143" height="98" as="geometry"/>
        </mxCell>
        <mxCell id="wtRjHfEzPxuqXv_TNVYW-163" value="" style="pointerEvents=1;verticalLabelPosition=bottom;shadow=0;dashed=0;align=center;html=1;verticalAlign=top;shape=mxgraph.electrical.electro-mechanical.stay_put;strokeColor=#000000;fillColor=none;" vertex="1" parent="wtRjHfEzPxuqXv_TNVYW-162">
          <mxGeometry x="103" width="40" height="7" as="geometry"/>
        </mxCell>
        <mxCell id="wtRjHfEzPxuqXv_TNVYW-164" value="" style="group" vertex="1" connectable="0" parent="wtRjHfEzPxuqXv_TNVYW-162">
          <mxGeometry width="143" height="98" as="geometry"/>
        </mxCell>
        <mxCell id="wtRjHfEzPxuqXv_TNVYW-165" value="" style="shape=mxgraph.pid.heat_exchangers.heat_exchanger_(coil_tubes);html=1;align=center;verticalLabelPosition=bottom;verticalAlign=top;dashed=0;rotation=90;" vertex="1" parent="wtRjHfEzPxuqXv_TNVYW-164">
          <mxGeometry x="105.5" y="20" width="35" height="35.63" as="geometry"/>
        </mxCell>
        <mxCell id="wtRjHfEzPxuqXv_TNVYW-166" style="edgeStyle=orthogonalEdgeStyle;rounded=0;orthogonalLoop=1;jettySize=auto;html=1;exitX=1;exitY=0.5;exitDx=0;exitDy=0;exitPerimeter=0;entryX=0.93;entryY=1;entryDx=0;entryDy=0;entryPerimeter=0;endArrow=none;endFill=0;" edge="1" parent="wtRjHfEzPxuqXv_TNVYW-164" source="wtRjHfEzPxuqXv_TNVYW-167" target="wtRjHfEzPxuqXv_TNVYW-165">
          <mxGeometry relative="1" as="geometry">
            <Array as="points">
              <mxPoint x="85" y="88"/>
              <mxPoint x="85" y="51"/>
              <mxPoint x="105" y="51"/>
            </Array>
          </mxGeometry>
        </mxCell>
        <mxCell id="wtRjHfEzPxuqXv_TNVYW-167" value="" style="pointerEvents=1;verticalLabelPosition=bottom;shadow=0;dashed=0;align=center;html=1;verticalAlign=top;shape=mxgraph.electrical.resistors.resistor_1;strokeColor=#000000;" vertex="1" parent="wtRjHfEzPxuqXv_TNVYW-164">
          <mxGeometry x="23" y="78" width="60" height="20" as="geometry"/>
        </mxCell>
        <mxCell id="wtRjHfEzPxuqXv_TNVYW-168" value="+&amp;nbsp; &amp;nbsp;-" style="text;html=1;resizable=0;autosize=1;align=center;verticalAlign=middle;points=[];fillColor=none;strokeColor=none;rounded=0;" vertex="1" parent="wtRjHfEzPxuqXv_TNVYW-164">
          <mxGeometry x="33" y="78" width="40" height="20" as="geometry"/>
        </mxCell>
        <mxCell id="wtRjHfEzPxuqXv_TNVYW-169" style="edgeStyle=orthogonalEdgeStyle;rounded=0;orthogonalLoop=1;jettySize=auto;html=1;exitX=1;exitY=0.84;exitDx=0;exitDy=0;exitPerimeter=0;endArrow=none;endFill=0;" edge="1" parent="wtRjHfEzPxuqXv_TNVYW-164" source="wtRjHfEzPxuqXv_TNVYW-170">
          <mxGeometry relative="1" as="geometry">
            <mxPoint x="103" y="28" as="targetPoint"/>
            <Array as="points">
              <mxPoint x="23" y="28"/>
            </Array>
          </mxGeometry>
        </mxCell>
        <mxCell id="wtRjHfEzPxuqXv_TNVYW-170" value="" style="pointerEvents=1;verticalLabelPosition=bottom;shadow=0;dashed=0;align=center;html=1;verticalAlign=top;shape=mxgraph.electrical.electro-mechanical.simple_switch;rotation=-90;" vertex="1" parent="wtRjHfEzPxuqXv_TNVYW-164">
          <mxGeometry y="51" width="40" height="9" as="geometry"/>
        </mxCell>
        <mxCell id="wtRjHfEzPxuqXv_TNVYW-171" style="edgeStyle=orthogonalEdgeStyle;rounded=0;orthogonalLoop=1;jettySize=auto;html=1;exitX=0;exitY=0.5;exitDx=0;exitDy=0;exitPerimeter=0;entryX=0;entryY=0.84;entryDx=0;entryDy=0;entryPerimeter=0;endArrow=none;endFill=0;" edge="1" parent="wtRjHfEzPxuqXv_TNVYW-164" source="wtRjHfEzPxuqXv_TNVYW-167" target="wtRjHfEzPxuqXv_TNVYW-170">
          <mxGeometry relative="1" as="geometry"/>
        </mxCell>
      </root>
    </mxGraphModel>
  </diagram>
</mxfile>
